<svg xmlns="http://www.w3.org/2000/svg"  viewBox="0 0 48 48" width="48px" height="48px"><path d="M 24 4 C 12.972292 4 4 12.972292 4 24 C 4 26.478056 4.4517717 28.8579 5.2792969 31.052734 A 1.50015 1.50015 0 1 0 8.0859375 29.994141 C 7.3834627 28.130975 7 26.113944 7 24 C 7 14.593708 14.593708 7 24 7 C 26.031023 7 27.971446 7.3555994 29.773438 8.0058594 A 1.5003855 1.5003855 0 1 0 30.792969 5.1835938 C 28.67096 4.4178537 26.380977 4 24 4 z M 37.064453 9.4042969 A 1.50015 1.50015 0 0 0 36.019531 11.980469 C 39.097639 15.057657 41 19.296363 41 24 C 41 33.205063 33.722282 40.655338 24.595703 40.970703 L 27.265625 36.345703 A 1.50015 1.50015 0 0 0 25.990234 34.076172 A 1.50015 1.50015 0 0 0 24.667969 34.845703 L 21.253906 40.755859 C 17.410668 40.131555 14.00133 38.243795 11.480469 35.5 A 1.5005243 1.5005243 0 1 0 9.2695312 37.529297 C 12.355019 40.88765 16.586618 43.182054 21.332031 43.816406 A 1.5006642 1.5006642 0 0 0 22.361328 43.925781 C 22.902494 43.969832 23.447845 44 24 44 C 35.027708 44 44 35.027708 44 24 C 44 18.485637 41.758517 13.474233 38.140625 9.8574219 A 1.50015 1.50015 0 0 0 37.064453 9.4042969 z M 24 15 A 1.50015 1.50015 0 0 0 23.826172 15.009766 C 19.927737 15.085176 16.622378 17.661349 15.455078 21.197266 L 12.945312 16.851562 A 1.50015 1.50015 0 0 0 11.578125 16.083984 A 1.50015 1.50015 0 0 0 10.347656 18.351562 L 16.205078 28.5 A 1.5006642 1.5006642 0 0 0 16.339844 28.693359 C 17.927211 31.268912 20.766737 33 24 33 C 28.952798 33 33 28.952794 33 24 C 33 21.696186 32.116829 19.595745 30.681641 18 L 34.234375 18 A 1.50015 1.50015 0 1 0 34.234375 15 L 24 15 z M 24 18 C 27.331479 18 30 20.668523 30 24 C 30 27.331477 27.331479 30 24 30 C 21.789331 30 19.874821 28.818722 18.833984 27.054688 A 1.5006642 1.5006642 0 0 0 18.804688 27 L 18.683594 26.791016 C 18.248366 25.958341 18 25.010717 18 24 C 18 20.668523 20.668521 18 24 18 z"/></svg>